<mxfile host="app.diagrams.net" agent="Mozilla/5.0 (X11; Ubuntu; Linux x86_64; rv:142.0) Gecko/20100101 Firefox/142.0" version="28.1.2">
  <diagram name="Page-1" id="Yr4BOMMFlqmh8c5RuyGG">
    <mxGraphModel dx="983" dy="570" grid="1" gridSize="10" guides="1" tooltips="1" connect="1" arrows="1" fold="1" page="1" pageScale="1" pageWidth="827" pageHeight="1169" math="0" shadow="0">
      <root>
        <mxCell id="0" />
        <mxCell id="1" parent="0" />
        <mxCell id="x9LDlvA2faZpsrg1kULh-1" value="User" style="text;html=1;align=center;verticalAlign=middle;resizable=0;points=[];autosize=1;strokeColor=none;fillColor=none;" parent="1" vertex="1">
          <mxGeometry x="120" y="90" width="50" height="30" as="geometry" />
        </mxCell>
        <mxCell id="x9LDlvA2faZpsrg1kULh-2" value="System" style="text;html=1;align=center;verticalAlign=middle;resizable=0;points=[];autosize=1;strokeColor=none;fillColor=none;" parent="1" vertex="1">
          <mxGeometry x="280" y="90" width="60" height="30" as="geometry" />
        </mxCell>
        <mxCell id="x9LDlvA2faZpsrg1kULh-3" value="" style="endArrow=none;html=1;rounded=0;" parent="1" edge="1">
          <mxGeometry width="50" height="50" relative="1" as="geometry">
            <mxPoint x="80" y="460" as="sourcePoint" />
            <mxPoint x="80" y="80" as="targetPoint" />
          </mxGeometry>
        </mxCell>
        <mxCell id="x9LDlvA2faZpsrg1kULh-4" value="" style="endArrow=none;html=1;rounded=0;" parent="1" edge="1">
          <mxGeometry width="50" height="50" relative="1" as="geometry">
            <mxPoint x="210" y="460" as="sourcePoint" />
            <mxPoint x="210" y="80" as="targetPoint" />
          </mxGeometry>
        </mxCell>
        <mxCell id="x9LDlvA2faZpsrg1kULh-5" value="" style="endArrow=none;html=1;rounded=0;" parent="1" edge="1">
          <mxGeometry width="50" height="50" relative="1" as="geometry">
            <mxPoint x="460" y="460" as="sourcePoint" />
            <mxPoint x="460" y="90" as="targetPoint" />
          </mxGeometry>
        </mxCell>
        <mxCell id="x9LDlvA2faZpsrg1kULh-6" value="" style="endArrow=none;html=1;rounded=0;" parent="1" edge="1">
          <mxGeometry width="50" height="50" relative="1" as="geometry">
            <mxPoint x="460" y="120" as="sourcePoint" />
            <mxPoint x="80" y="120" as="targetPoint" />
          </mxGeometry>
        </mxCell>
        <mxCell id="x9LDlvA2faZpsrg1kULh-14" style="edgeStyle=orthogonalEdgeStyle;rounded=0;orthogonalLoop=1;jettySize=auto;html=1;" parent="1" source="x9LDlvA2faZpsrg1kULh-7" target="x9LDlvA2faZpsrg1kULh-8" edge="1">
          <mxGeometry relative="1" as="geometry" />
        </mxCell>
        <mxCell id="x9LDlvA2faZpsrg1kULh-7" value="" style="ellipse;fillColor=strokeColor;html=1;" parent="1" vertex="1">
          <mxGeometry x="130" y="130" width="20" height="20" as="geometry" />
        </mxCell>
        <mxCell id="FWpDEISwyhDTJPlVvAqG-2" style="edgeStyle=orthogonalEdgeStyle;rounded=0;orthogonalLoop=1;jettySize=auto;html=1;" edge="1" parent="1" source="x9LDlvA2faZpsrg1kULh-8" target="FWpDEISwyhDTJPlVvAqG-1">
          <mxGeometry relative="1" as="geometry" />
        </mxCell>
        <mxCell id="x9LDlvA2faZpsrg1kULh-8" value="Click deactivate" style="html=1;align=center;verticalAlign=top;rounded=1;absoluteArcSize=1;arcSize=10;dashed=0;whiteSpace=wrap;" parent="1" vertex="1">
          <mxGeometry x="90" y="180" width="100" height="30" as="geometry" />
        </mxCell>
        <mxCell id="x9LDlvA2faZpsrg1kULh-16" value="[no]" style="rounded=0;orthogonalLoop=1;jettySize=auto;html=1;" parent="1" source="x9LDlvA2faZpsrg1kULh-10" target="x9LDlvA2faZpsrg1kULh-15" edge="1">
          <mxGeometry relative="1" as="geometry" />
        </mxCell>
        <mxCell id="x9LDlvA2faZpsrg1kULh-18" value="[yes]" style="rounded=0;orthogonalLoop=1;jettySize=auto;html=1;" parent="1" source="x9LDlvA2faZpsrg1kULh-10" target="x9LDlvA2faZpsrg1kULh-17" edge="1">
          <mxGeometry relative="1" as="geometry" />
        </mxCell>
        <mxCell id="x9LDlvA2faZpsrg1kULh-10" value="Credentials&#xa;valid?" style="rhombus;fontSize=9;" parent="1" vertex="1">
          <mxGeometry x="286.25" y="220" width="95" height="50" as="geometry" />
        </mxCell>
        <mxCell id="x9LDlvA2faZpsrg1kULh-27" style="edgeStyle=orthogonalEdgeStyle;rounded=0;orthogonalLoop=1;jettySize=auto;html=1;" parent="1" source="x9LDlvA2faZpsrg1kULh-15" target="x9LDlvA2faZpsrg1kULh-25" edge="1">
          <mxGeometry relative="1" as="geometry" />
        </mxCell>
        <mxCell id="x9LDlvA2faZpsrg1kULh-15" value="Send error" style="html=1;align=center;verticalAlign=top;rounded=1;absoluteArcSize=1;arcSize=10;dashed=0;whiteSpace=wrap;" parent="1" vertex="1">
          <mxGeometry x="230" y="330" width="82.5" height="30" as="geometry" />
        </mxCell>
        <mxCell id="FWpDEISwyhDTJPlVvAqG-5" style="edgeStyle=orthogonalEdgeStyle;rounded=0;orthogonalLoop=1;jettySize=auto;html=1;" edge="1" parent="1" source="x9LDlvA2faZpsrg1kULh-17" target="FWpDEISwyhDTJPlVvAqG-4">
          <mxGeometry relative="1" as="geometry" />
        </mxCell>
        <mxCell id="x9LDlvA2faZpsrg1kULh-17" value="Set account to inactive" style="html=1;align=center;verticalAlign=top;rounded=1;absoluteArcSize=1;arcSize=10;dashed=0;whiteSpace=wrap;" parent="1" vertex="1">
          <mxGeometry x="321" y="360" width="119" height="40" as="geometry" />
        </mxCell>
        <mxCell id="x9LDlvA2faZpsrg1kULh-19" value="" style="shape=sumEllipse;perimeter=ellipsePerimeter;html=1;backgroundOutline=1;" parent="1" vertex="1">
          <mxGeometry x="125" y="420" width="30" height="30" as="geometry" />
        </mxCell>
        <mxCell id="x9LDlvA2faZpsrg1kULh-28" style="edgeStyle=orthogonalEdgeStyle;rounded=0;orthogonalLoop=1;jettySize=auto;html=1;" parent="1" source="x9LDlvA2faZpsrg1kULh-25" target="x9LDlvA2faZpsrg1kULh-19" edge="1">
          <mxGeometry relative="1" as="geometry" />
        </mxCell>
        <mxCell id="x9LDlvA2faZpsrg1kULh-25" value="" style="rhombus;" parent="1" vertex="1">
          <mxGeometry x="256.25" y="420" width="30" height="30" as="geometry" />
        </mxCell>
        <mxCell id="FWpDEISwyhDTJPlVvAqG-3" style="edgeStyle=orthogonalEdgeStyle;rounded=0;orthogonalLoop=1;jettySize=auto;html=1;" edge="1" parent="1" source="FWpDEISwyhDTJPlVvAqG-1" target="x9LDlvA2faZpsrg1kULh-10">
          <mxGeometry relative="1" as="geometry" />
        </mxCell>
        <mxCell id="FWpDEISwyhDTJPlVvAqG-1" value="Authenticate" style="html=1;align=center;verticalAlign=top;rounded=1;absoluteArcSize=1;arcSize=10;dashed=0;whiteSpace=wrap;" vertex="1" parent="1">
          <mxGeometry x="90" y="230" width="100" height="30" as="geometry" />
        </mxCell>
        <mxCell id="FWpDEISwyhDTJPlVvAqG-6" style="edgeStyle=orthogonalEdgeStyle;rounded=0;orthogonalLoop=1;jettySize=auto;html=1;" edge="1" parent="1" source="FWpDEISwyhDTJPlVvAqG-4" target="x9LDlvA2faZpsrg1kULh-25">
          <mxGeometry relative="1" as="geometry" />
        </mxCell>
        <mxCell id="FWpDEISwyhDTJPlVvAqG-4" value="Remove session" style="html=1;align=center;verticalAlign=top;rounded=1;absoluteArcSize=1;arcSize=10;dashed=0;whiteSpace=wrap;" vertex="1" parent="1">
          <mxGeometry x="321" y="420" width="119" height="30" as="geometry" />
        </mxCell>
      </root>
    </mxGraphModel>
  </diagram>
</mxfile>
